<svg width="14" height="14" viewBox="0 0 14 14" fill="none" xmlns="http://www.w3.org/2000/svg">
<path d="M12.7306 5.46825L8.15108 9.74688C8.06593 9.82708 7.96463 9.89075 7.85302 9.93419C7.74141 9.97763 7.62169 10 7.50078 10C7.37987 10 7.26015 9.97763 7.14854 9.93419C7.03693 9.89075 6.93563 9.82708 6.85048 9.74688L2.27093 5.46825C2.18508 5.3887 2.11694 5.29406 2.07044 5.18978C2.02394 5.0855 2 4.97365 2 4.86069C2 4.74772 2.02394 4.63587 2.07044 4.53159C2.11694 4.42732 2.18508 4.33267 2.27093 4.25312C2.35607 4.17292 2.45737 4.10925 2.56898 4.06581C2.6806 4.02237 2.80031 4 2.92122 4C3.04213 4 3.16185 4.02237 3.27346 4.06581C3.38507 4.10926 3.48637 4.17292 3.57152 4.25312L7.50078 7.93274L11.43 4.25312C11.6025 4.09199 11.8364 4.00146 12.0803 4.00146C12.2011 4.00146 12.3207 4.02368 12.4323 4.06686C12.5439 4.11005 12.6452 4.17334 12.7306 4.25312C12.9031 4.41426 13 4.63281 13 4.86069C13 4.97352 12.9762 5.08525 12.93 5.1895C12.8838 5.29375 12.816 5.38847 12.7306 5.46825Z" fill="#2156A3"/>
</svg>
