<svg width="24" height="24" viewBox="0 0 24 24" fill="none" xmlns="http://www.w3.org/2000/svg">
<mask id="mask0_648_645" style="mask-type:alpha" maskUnits="userSpaceOnUse" x="-1" y="0" width="25" height="24">
<rect x="-0.000488281" width="24" height="24" fill="#D9D9D9"/>
</mask>
<g mask="url(#mask0_648_645)">
<path d="M11.9995 22C10.6328 22 9.34118 21.7375 8.12451 21.2125C6.90785 20.6875 5.84535 19.9708 4.93701 19.0625C4.02868 18.1542 3.31201 17.0917 2.78701 15.875C2.26201 14.6583 1.99951 13.3667 1.99951 12C1.99951 10.6167 2.26201 9.32083 2.78701 8.1125C3.31201 6.90417 4.02868 5.84583 4.93701 4.9375C5.84535 4.02917 6.90785 3.3125 8.12451 2.7875C9.34118 2.2625 10.6328 2 11.9995 2C13.3828 2 14.6787 2.2625 15.887 2.7875C17.0953 3.3125 18.1537 4.02917 19.062 4.9375C19.9703 5.84583 20.687 6.90417 21.212 8.1125C21.737 9.32083 21.9995 10.6167 21.9995 12C21.9995 13.3667 21.737 14.6583 21.212 15.875C20.687 17.0917 19.9703 18.1542 19.062 19.0625C18.1537 19.9708 17.0953 20.6875 15.887 21.2125C14.6787 21.7375 13.3828 22 11.9995 22ZM11.9995 19.95C12.4328 19.35 12.8078 18.725 13.1245 18.075C13.4412 17.425 13.6995 16.7333 13.8995 16H10.0995C10.2995 16.7333 10.5578 17.425 10.8745 18.075C11.1912 18.725 11.5662 19.35 11.9995 19.95ZM9.39951 19.55C9.09951 19 8.83701 18.4292 8.61201 17.8375C8.38701 17.2458 8.19951 16.6333 8.04951 16H5.09951C5.58285 16.8333 6.18701 17.5583 6.91201 18.175C7.63701 18.7917 8.46618 19.25 9.39951 19.55ZM14.5995 19.55C15.5328 19.25 16.362 18.7917 17.087 18.175C17.812 17.5583 18.4162 16.8333 18.8995 16H15.9495C15.7995 16.6333 15.612 17.2458 15.387 17.8375C15.162 18.4292 14.8995 19 14.5995 19.55ZM4.24951 14H7.64951C7.59951 13.6667 7.56201 13.3375 7.53701 13.0125C7.51201 12.6875 7.49951 12.35 7.49951 12C7.49951 11.65 7.51201 11.3125 7.53701 10.9875C7.56201 10.6625 7.59951 10.3333 7.64951 10H4.24951C4.16618 10.3333 4.10368 10.6625 4.06201 10.9875C4.02034 11.3125 3.99951 11.65 3.99951 12C3.99951 12.35 4.02034 12.6875 4.06201 13.0125C4.10368 13.3375 4.16618 13.6667 4.24951 14ZM9.64951 14H14.3495C14.3995 13.6667 14.437 13.3375 14.462 13.0125C14.487 12.6875 14.4995 12.35 14.4995 12C14.4995 11.65 14.487 11.3125 14.462 10.9875C14.437 10.6625 14.3995 10.3333 14.3495 10H9.64951C9.59951 10.3333 9.56201 10.6625 9.53701 10.9875C9.51201 11.3125 9.49951 11.65 9.49951 12C9.49951 12.35 9.51201 12.6875 9.53701 13.0125C9.56201 13.3375 9.59951 13.6667 9.64951 14ZM16.3495 14H19.7495C19.8328 13.6667 19.8953 13.3375 19.937 13.0125C19.9787 12.6875 19.9995 12.35 19.9995 12C19.9995 11.65 19.9787 11.3125 19.937 10.9875C19.8953 10.6625 19.8328 10.3333 19.7495 10H16.3495C16.3995 10.3333 16.437 10.6625 16.462 10.9875C16.487 11.3125 16.4995 11.65 16.4995 12C16.4995 12.35 16.487 12.6875 16.462 13.0125C16.437 13.3375 16.3995 13.6667 16.3495 14ZM15.9495 8H18.8995C18.4162 7.16667 17.812 6.44167 17.087 5.825C16.362 5.20833 15.5328 4.75 14.5995 4.45C14.8995 5 15.162 5.57083 15.387 6.1625C15.612 6.75417 15.7995 7.36667 15.9495 8ZM10.0995 8H13.8995C13.6995 7.26667 13.4412 6.575 13.1245 5.925C12.8078 5.275 12.4328 4.65 11.9995 4.05C11.5662 4.65 11.1912 5.275 10.8745 5.925C10.5578 6.575 10.2995 7.26667 10.0995 8ZM5.09951 8H8.04951C8.19951 7.36667 8.38701 6.75417 8.61201 6.1625C8.83701 5.57083 9.09951 5 9.39951 4.45C8.46618 4.75 7.63701 5.20833 6.91201 5.825C6.18701 6.44167 5.58285 7.16667 5.09951 8Z" fill="white"/>
</g>
</svg>
