<svg width="24" height="24" viewBox="0 0 24 24" fill="none" xmlns="http://www.w3.org/2000/svg">
<mask id="mask0_648_659" style="mask-type:alpha" maskUnits="userSpaceOnUse" x="-1" y="0" width="25" height="24">
<rect x="-0.000488281" width="24" height="24" fill="#D9D9D9"/>
</mask>
<g mask="url(#mask0_648_659)">
<path d="M11.9995 22C10.2328 22 8.79118 21.7208 7.67451 21.1625C6.55785 20.6042 5.99951 19.8833 5.99951 19C5.99951 18.4167 6.24118 17.9083 6.72451 17.475C7.20785 17.0417 7.87451 16.7 8.72451 16.45L9.29951 18.35C9.01618 18.4333 8.75785 18.5375 8.52451 18.6625C8.29118 18.7875 8.13284 18.9 8.04951 19C8.26618 19.2667 8.76618 19.5 9.54951 19.7C10.3328 19.9 11.1495 20 11.9995 20C12.8495 20 13.6703 19.9 14.462 19.7C15.2537 19.5 15.7578 19.2667 15.9745 19C15.8912 18.9 15.7328 18.7875 15.4995 18.6625C15.2662 18.5375 15.0078 18.4333 14.7245 18.35L15.2995 16.45C16.1495 16.7 16.812 17.0417 17.287 17.475C17.762 17.9083 17.9995 18.4167 17.9995 19C17.9995 19.8833 17.4412 20.6042 16.3245 21.1625C15.2078 21.7208 13.7662 22 11.9995 22ZM11.9995 15.325C12.2995 14.775 12.6162 14.2708 12.9495 13.8125C13.2828 13.3542 13.6078 12.9167 13.9245 12.5C14.5412 11.7 15.0328 10.9792 15.3995 10.3375C15.7662 9.69583 15.9495 8.9 15.9495 7.95C15.9495 6.85 15.5662 5.91667 14.7995 5.15C14.0328 4.38333 13.0995 4 11.9995 4C10.8995 4 9.96618 4.38333 9.19951 5.15C8.43285 5.91667 8.04951 6.85 8.04951 7.95C8.04951 8.9 8.23285 9.69583 8.59951 10.3375C8.96618 10.9792 9.45785 11.7 10.0745 12.5C10.3912 12.9167 10.7162 13.3542 11.0495 13.8125C11.3828 14.2708 11.6995 14.775 11.9995 15.325ZM11.9995 19C11.8162 19 11.6495 18.9458 11.4995 18.8375C11.3495 18.7292 11.2412 18.5833 11.1745 18.4C10.7912 17.2167 10.3078 16.225 9.72451 15.425C9.14118 14.625 8.57451 13.8583 8.02451 13.125C7.49118 12.3917 7.02868 11.6333 6.63701 10.85C6.24535 10.0667 6.04951 9.1 6.04951 7.95C6.04951 6.28333 6.62451 4.875 7.77451 3.725C8.92451 2.575 10.3328 2 11.9995 2C13.6662 2 15.0745 2.575 16.2245 3.725C17.3745 4.875 17.9495 6.28333 17.9495 7.95C17.9495 9.1 17.7578 10.0667 17.3745 10.85C16.9912 11.6333 16.5245 12.3917 15.9745 13.125C15.4412 13.8583 14.8787 14.625 14.287 15.425C13.6953 16.225 13.2078 17.2167 12.8245 18.4C12.7578 18.5833 12.6495 18.7292 12.4995 18.8375C12.3495 18.9458 12.1828 19 11.9995 19ZM11.9995 10.075C12.5828 10.075 13.0828 9.86667 13.4995 9.45C13.9162 9.03333 14.1245 8.53333 14.1245 7.95C14.1245 7.36667 13.9162 6.86667 13.4995 6.45C13.0828 6.03333 12.5828 5.825 11.9995 5.825C11.4162 5.825 10.9162 6.03333 10.4995 6.45C10.0828 6.86667 9.87451 7.36667 9.87451 7.95C9.87451 8.53333 10.0828 9.03333 10.4995 9.45C10.9162 9.86667 11.4162 10.075 11.9995 10.075Z" fill="white"/>
</g>
</svg>
