<svg width="18" height="18" viewBox="0 0 18 18" fill="none" xmlns="http://www.w3.org/2000/svg">
<path d="M16.9495 18C14.8662 18 12.8078 17.5458 10.7745 16.6375C8.74118 15.7292 6.89118 14.4417 5.22451 12.775C3.55785 11.1083 2.27035 9.25833 1.36201 7.225C0.453678 5.19167 -0.000488281 3.13333 -0.000488281 1.05C-0.000488281 0.75 0.0995117 0.5 0.299512 0.3C0.499512 0.1 0.749512 0 1.04951 0H5.09951C5.33284 0 5.54118 0.0791667 5.72451 0.2375C5.90785 0.395833 6.01618 0.583333 6.04951 0.8L6.69951 4.3C6.73285 4.56667 6.72451 4.79167 6.67451 4.975C6.62451 5.15833 6.53285 5.31667 6.39951 5.45L3.97451 7.9C4.30785 8.51667 4.70368 9.1125 5.16201 9.6875C5.62035 10.2625 6.12451 10.8167 6.67451 11.35C7.19118 11.8667 7.73285 12.3458 8.29951 12.7875C8.86618 13.2292 9.46618 13.6333 10.0995 14L12.4495 11.65C12.5995 11.5 12.7953 11.3875 13.037 11.3125C13.2787 11.2375 13.5162 11.2167 13.7495 11.25L17.1995 11.95C17.4328 12.0167 17.6245 12.1375 17.7745 12.3125C17.9245 12.4875 17.9995 12.6833 17.9995 12.9V16.95C17.9995 17.25 17.8995 17.5 17.6995 17.7C17.4995 17.9 17.2495 18 16.9495 18ZM3.02451 6L4.67451 4.35L4.24951 2H2.02451C2.10785 2.68333 2.22451 3.35833 2.37451 4.025C2.52451 4.69167 2.74118 5.35 3.02451 6ZM11.9745 14.95C12.6245 15.2333 13.287 15.4583 13.962 15.625C14.637 15.7917 15.3162 15.9 15.9995 15.95V13.75L13.6495 13.275L11.9745 14.95Z" fill="white"/>
</svg>
