<svg width="24" height="24" viewBox="0 0 24 24" fill="none" xmlns="http://www.w3.org/2000/svg">
<path d="M16.5995 13.9996C16.3995 13.8996 15.0995 13.2996 14.8995 13.1996C14.6995 13.0996 14.4995 13.0996 14.2995 13.2996C14.0995 13.4996 13.6995 14.0996 13.4995 14.2996C13.3995 14.4996 13.1995 14.4996 12.9995 14.3996C12.2995 14.0996 11.5995 13.6996 10.9995 13.1996C10.4995 12.6996 9.99951 12.0996 9.59951 11.4996C9.49951 11.2996 9.59951 11.0996 9.69951 10.9996C9.79951 10.8996 9.89951 10.6996 10.0995 10.5996C10.1995 10.4996 10.2995 10.2996 10.2995 10.1996C10.3995 10.0996 10.3995 9.89961 10.2995 9.79961C10.1995 9.69961 9.69951 8.49961 9.49951 7.99961C9.39951 7.29961 9.19951 7.29961 8.99951 7.29961H8.49951C8.29951 7.29961 7.99951 7.49961 7.89951 7.59961C7.29951 8.19961 6.99951 8.89961 6.99951 9.69961C7.09951 10.5996 7.39951 11.4996 7.99951 12.2996C9.09951 13.8996 10.4995 15.1996 12.1995 15.9996C12.6995 16.1996 13.0995 16.3996 13.5995 16.4996C14.0995 16.6996 14.5995 16.6996 15.1995 16.5996C15.8995 16.4996 16.4995 15.9996 16.8995 15.3996C17.0995 14.9996 17.0995 14.5996 16.9995 14.1996L16.5995 13.9996ZM19.0995 4.89961C15.1995 0.999609 8.89951 0.999609 4.99951 4.89961C1.79951 8.09961 1.19951 12.9996 3.39951 16.8996L1.99951 21.9996L7.29951 20.5996C8.79951 21.3996 10.3995 21.7996 11.9995 21.7996C17.4995 21.7996 21.8995 17.3996 21.8995 11.8996C21.9995 9.29961 20.8995 6.79961 19.0995 4.89961ZM16.3995 18.8996C15.0995 19.6996 13.5995 20.1996 11.9995 20.1996C10.4995 20.1996 9.09951 19.7996 7.79951 19.0996L7.49951 18.8996L4.39951 19.6996L5.19951 16.6996L4.99951 16.3996C2.59951 12.3996 3.79951 7.39961 7.69951 4.89961C11.5995 2.39961 16.5995 3.69961 18.9995 7.49961C21.3995 11.3996 20.2995 16.4996 16.3995 18.8996Z" fill="white"/>
</svg>
